<?xml version="1.0" encoding="iso-8859-1"?>
<!-- Generator: Adobe Illustrator 19.0.0, SVG Export Plug-In . SVG Version: 6.00 Build 0)  -->
<svg version="1.1" id="Layer_1" xmlns="http://www.w3.org/2000/svg" xmlns:xlink="http://www.w3.org/1999/xlink" x="0px" y="0px"
	 viewBox="0 0 512 512" style="enable-background:new 0 0 512 512;" xml:space="preserve">
<path style="fill:#605757;" d="M100.174,0C44.849,0,0,44.849,0,100.174c0,33.986,16.928,64.013,42.808,82.125L189.206,54.223
	C172.55,22.016,138.935,0,100.174,0z"/>
<path style="fill:#403A3A;" d="M411.826,0c-38.761,0-72.376,22.016-89.032,54.223l146.399,128.076
	C495.072,164.187,512,134.16,512,100.174C512,44.849,467.151,0,411.826,0z"/>
<path style="fill:#FFD485;" d="M22.261,278.261C22.261,407.352,126.909,512,256,512l22.261-233.739L256,44.522
	C126.909,44.522,22.261,149.17,22.261,278.261z"/>
<path style="fill:#FFB833;" d="M256,44.522V512c129.091,0,233.739-104.648,233.739-233.739S385.091,44.522,256,44.522z"/>
<path style="fill:#403A3A;" d="M402.205,229.902l-28.203-26.867c-8.986-8.556-21.137-13.818-34.523-13.818
	c-27.662,0-50.087,22.424-50.087,50.087v38.957c0,36.883,29.9,66.783,66.783,66.783s66.783-29.9,66.783-66.783
	C422.957,259.227,414.98,242.067,402.205,229.902z"/>
<path style="fill:#605757;" d="M109.795,229.902l28.203-26.867c8.986-8.556,21.137-13.818,34.523-13.818
	c27.662,0,50.087,22.424,50.087,50.087v38.957c0,36.883-29.9,66.783-66.783,66.783s-66.783-29.9-66.783-66.783
	C89.043,259.227,97.02,242.067,109.795,229.902z"/>
<polygon style="fill:#403A3A;" points="306.087,384 256,384 239.304,417.391 239.304,461.913 272.696,461.913 272.696,417.391 
	306.087,417.391 "/>
<rect x="205.913" y="384" style="fill:#605757;" width="50.087" height="33.391"/>
<g>
</g>
<g>
</g>
<g>
</g>
<g>
</g>
<g>
</g>
<g>
</g>
<g>
</g>
<g>
</g>
<g>
</g>
<g>
</g>
<g>
</g>
<g>
</g>
<g>
</g>
<g>
</g>
<g>
</g>
</svg>
